HIERARCHY
ROOT Hips
{
	OFFSET -3.958830 18.904000 13.208200
	CHANNELS 6 Xposition Yposition Zposition Zrotation Yrotation Xrotation 
	JOINT LHipJoint
	{
		OFFSET 0.000000 0.000000 0.000000
		CHANNELS 3 Zrotation Yrotation Xrotation
		JOINT LeftUpLeg
		{
			OFFSET 1.800000 -1.400000 0.085000
			CHANNELS 3 Zrotation Yrotation Xrotation
			JOINT LeftLeg
			{
				OFFSET 2.215000 -6.000000 0.000000
				CHANNELS 3 Zrotation Yrotation Xrotation
				JOINT LeftFoot
				{
					OFFSET 2.500000 -6.900000 0.000000
					CHANNELS 3 Zrotation Yrotation Xrotation
					JOINT LeftToeBase
					{
						OFFSET 0.200000 -0.500000 1.950000
						CHANNELS 3 Zrotation Yrotation Xrotation
						End Site
						{
							OFFSET 0.000000 0.000000 0.000000
						}
					}
				}
			}
		}
	}
	JOINT RHipJoint
	{
		OFFSET 0.000000 0.000000 0.000000
		CHANNELS 3 Zrotation Yrotation Xrotation
		JOINT RightUpLeg
		{
			OFFSET -1.800000 -1.400000 0.085000
			CHANNELS 3 Zrotation Yrotation Xrotation
			JOINT RightLeg
			{
				OFFSET -2.215000 -6.000000 0.000000
				CHANNELS 3 Zrotation Yrotation Xrotation
				JOINT RightFoot
				{
					OFFSET -2.500000 -6.900000 0.000000
					CHANNELS 3 Zrotation Yrotation Xrotation
					JOINT RightToeBase
					{
						OFFSET -0.200000 -0.500000 1.950000
						CHANNELS 3 Zrotation Yrotation Xrotation
						End Site
						{
							OFFSET 0.000000 0.000000 0.000000
						}
					}
				}
			}
		}
	}
	JOINT LowerBack
	{
		OFFSET 0.000000 0.000000 0.000000
		CHANNELS 3 Zrotation Yrotation Xrotation
		JOINT Spine
		{
			OFFSET -0.087000 1.940000 -0.288900
			CHANNELS 3 Zrotation Yrotation Xrotation
			JOINT Spine1
			{
				OFFSET 0.000000 1.950000 0.060000
				CHANNELS 3 Zrotation Yrotation Xrotation
				JOINT Neck
				{
					OFFSET 0.000000 0.000000 0.000000
					CHANNELS 3 Zrotation Yrotation Xrotation
					JOINT Neck1
					{
						OFFSET 0.000000 1.600000 0.340000
						CHANNELS 3 Zrotation Yrotation Xrotation
						JOINT Head
						{
							OFFSET 0.000000 1.667000 -0.240000
							CHANNELS 3 Zrotation Yrotation Xrotation
							End Site
							{
								OFFSET 0.000000 0.000000 0.000000
							}
						}
					}
				}
				JOINT LeftShoulder
				{
					OFFSET 0.000000 0.000000 0.000000
					CHANNELS 3 Zrotation Yrotation Xrotation
					JOINT LeftArm
					{
						OFFSET 2.700000 1.550000 -0.730000
						CHANNELS 3 Zrotation Yrotation Xrotation
						JOINT LeftForeArm
						{
							OFFSET 5.450000 0.000000 0.000000
							CHANNELS 3 Zrotation Yrotation Xrotation
							JOINT LeftHand
							{
								OFFSET 3.450000 0.000000 0.000000
								CHANNELS 3 Zrotation Yrotation Xrotation
								JOINT LeftHandIndex1
								{
									OFFSET 0.750000 0.000000 0.000000
									CHANNELS 3 Zrotation Yrotation Xrotation
									End Site
									{
										OFFSET 0.000000 0.000000 0.000000
									}
								}
							}
						}
					}
				}
				JOINT RightShoulder
				{
					OFFSET 0.000000 0.000000 0.000000
					CHANNELS 3 Zrotation Yrotation Xrotation
					JOINT RightArm
					{
						OFFSET -2.700000 1.550000 -0.730000
						CHANNELS 3 Zrotation Yrotation Xrotation
						JOINT RightForeArm
						{
							OFFSET -5.450000 0.000000 0.000000
							CHANNELS 3 Zrotation Yrotation Xrotation
							JOINT RightHand
							{
								OFFSET -3.450000 0.000000 0.000000
								CHANNELS 3 Zrotation Yrotation Xrotation
								JOINT RightHandIndex1
								{
									OFFSET -0.750000 0.000000 0.000000
									CHANNELS 3 Zrotation Yrotation Xrotation
									End Site
									{
										OFFSET 0.000000 0.000000 0.000000
									}
								}
							}
						}
					}
				}
			}
		}
	}
}
MOTION
Frames: 7
Frame Time: 0.016667
1.492930 17.500310 -3.023490 -0.188189 -4.131979 -14.692256 -14.847107 12.631637 2.721550 13.574341 2.109383 9.130216 -4.059011 5.242082 1.680912 0.844448 4.572714 3.231152 0.524050 0.518120 0.077800 18.454424 -11.277137 3.214173 -20.530155 0.961650 -4.355795 15.874724 -6.011885 8.360901 -0.430902 -5.055426 2.589194 0.140640 0.020910 -0.025600 -4.332613 -0.156153 -8.411523 14.576665 -4.471571 21.190771 -15.328149 2.808007 35.871842 11.689499 -7.768249 -22.218579 -12.923204 -10.642955 37.539914 21.417160 -25.465300 -16.640810 -0.307956 -25.384760 10.320203 -39.875124 -11.294347 1.351846 9.571068 3.605964 0.676089 -3.282777 3.447457 0.015670 -0.318850 0.046490 0.314220 -18.232112 45.038536 9.267848 -7.092340 12.880504 -19.211742 -19.398750 22.845017 -5.035280 3.204280 -2.391538 0.266670 0.006460 -0.394220 0.356360 
1.462900 17.486120 -3.019820 -0.386816 -5.038010 -14.738938 -14.815583 12.567223 2.652524 14.042379 2.080406 9.165059 -3.931030 5.331107 2.316611 0.840516 4.602406 3.233590 0.506770 0.502480 0.060830 18.487242 -11.334426 3.248457 -20.546970 1.163631 -4.897258 16.680926 -6.200805 8.918192 -0.425556 -5.134155 2.569934 0.135530 0.048730 -0.022980 -4.420090 0.129758 -8.360346 15.021810 -4.824961 21.247495 -15.091369 2.471697 35.154623 11.870498 -8.632397 -21.589829 -13.624309 -10.045465 36.342463 20.529650 -24.779070 -16.300090 -0.032022 -24.157489 10.127248 -43.297425 -9.953997 -0.914945 14.997725 -1.112932 -0.145805 -3.237621 3.528166 0.003280 -0.294670 0.028480 0.318330 -18.495919 44.444566 7.511549 -6.973545 12.598847 -16.285508 -15.472273 21.120811 -3.584445 3.107683 -2.353050 0.256160 0.016750 -0.383340 0.358680 
1.402450 17.468540 -2.986060 -0.953083 -6.526479 -14.811196 -14.652262 12.405674 2.627483 14.900110 2.035809 9.847582 -3.593950 5.364612 2.578205 0.905890 4.583646 3.229108 0.460260 0.417850 0.089820 18.608308 -11.578211 3.380216 -20.151238 1.511881 -5.319187 17.724711 -6.457173 9.548784 -0.468992 -5.204572 2.546014 0.041520 -0.020670 -0.005850 -4.778055 0.824870 -8.527212 17.099000 -5.189907 21.586749 -16.222755 3.259308 32.539288 12.010611 -8.652032 -22.379593 -13.097210 -9.086661 39.567447 19.393720 -24.259310 -14.080450 -4.326941 -25.591646 11.758483 -42.679007 -3.937670 -4.496487 19.824275 -4.748615 -1.167113 -3.129390 3.620088 0.045580 -0.320700 0.070230 0.287400 -14.461007 45.958368 4.478483 -6.613707 11.542014 -5.581099 -11.072365 5.983705 -0.888298 3.512887 -1.832034 0.273900 -0.061880 -0.394960 0.323310 
1.325590 17.467350 -2.958110 -1.429529 -7.808957 -15.826617 -14.649859 12.509601 2.640148 16.014712 2.119175 10.798907 -2.948846 5.521596 3.251921 0.993352 4.670413 3.190312 0.475430 0.480910 0.105200 18.589630 -11.527551 3.433902 -19.747001 1.367804 -3.906385 18.686538 -6.672124 9.374257 -0.565287 -5.331582 2.538495 0.039160 -0.045710 0.007500 -4.698495 0.487828 -8.402124 17.108485 -6.654148 22.582505 -17.612092 2.324370 33.495164 12.444669 -8.313803 -23.563838 -12.910331 -8.050027 39.129534 18.546100 -22.341780 -14.452280 -4.337335 -21.838403 9.428751 -42.807640 -2.319883 -6.665872 21.840068 -7.366091 -1.981816 -3.134960 3.590600 0.045280 -0.320730 0.129760 0.296750 -15.693499 42.301193 10.284953 -7.199213 11.779307 0.076466 -6.954992 -2.879325 -0.112447 3.698755 -1.241869 0.313880 -0.059540 -0.422580 0.336200 
1.241000 17.463130 -2.932500 -1.432311 -10.269363 -16.583568 -14.604438 12.606184 2.711428 16.575375 2.139953 12.099281 -2.735842 5.716150 3.840280 1.065497 4.788483 3.142281 0.472700 0.459700 0.126420 18.597339 -11.570667 3.444848 -19.193490 1.381094 -4.047152 19.291422 -6.976582 10.435692 -0.611225 -5.324107 2.541449 -0.000820 -0.090400 0.004280 -4.729939 0.391422 -8.311030 17.167476 -7.579006 23.800615 -17.888791 1.756718 32.167715 11.273908 -8.397548 -24.279926 -13.896916 -6.750856 41.181051 19.795320 -21.794850 -14.338210 -4.606539 -20.505926 8.775435 -43.090980 -0.402278 -8.573192 24.915027 -8.895754 -2.817922 -3.079383 3.587550 0.104210 -0.364880 0.176010 0.293850 -13.635628 40.490770 13.927876 -6.370433 11.451428 -0.196557 -5.648658 -7.731214 -0.015214 3.812143 -0.935283 0.318670 -0.082290 -0.441780 0.319370 
1.138870 17.438900 -2.890360 -1.651745 -12.071186 -16.713580 -14.599492 12.812918 2.805805 17.391291 2.039501 12.587628 -2.270485 5.878875 4.693158 0.993740 4.932122 3.077131 0.478090 0.378680 0.294230 18.546215 -11.592966 3.446329 -18.219947 1.463091 -4.049929 19.384732 -7.206245 11.432866 -0.641162 -5.199198 2.548733 -0.031480 -0.195350 -0.030400 -4.635049 0.219414 -8.255851 16.838564 -8.439538 24.479560 -18.737402 1.206522 29.650514 10.727162 -7.038034 -25.129442 -12.105441 -5.392745 44.686636 17.342980 -19.184950 -13.739150 -6.170647 -17.544146 7.427890 -43.733215 3.637597 -10.074327 23.652918 -11.167764 -3.019076 -3.029338 3.414799 0.255380 -0.429480 0.230610 0.208460 -12.128020 36.843798 19.106938 -2.104053 12.966134 -1.140428 -9.092515 -7.274107 0.071224 3.770567 -1.013313 0.241260 -0.070780 -0.446700 0.190140 
1.049000 17.392720 -2.810870 -2.720172 -13.315579 -14.152700 -14.649293 13.334917 2.986300 18.452851 1.484213 9.960617 -2.010563 5.867574 5.860179 0.909748 4.793225 3.051808 0.482220 0.308660 0.435030 18.364161 -11.520429 3.523406 -16.315602 1.957280 -6.455408 19.772898 -7.342585 12.617256 -0.627592 -4.784149 2.645418 -0.101550 -0.369400 -0.034520 -4.225709 -0.216431 -8.424190 18.092274 -6.812089 24.524587 -16.216651 2.029259 16.444115 8.509252 -5.410938 -24.419399 -9.479801 -5.493634 55.239783 14.286330 -18.815910 -12.024620 -12.879102 -14.096249 6.247642 -40.676094 8.304236 -9.092259 21.064231 -10.313835 -2.002866 -2.986528 3.214606 0.399390 -0.527730 0.329950 0.119550 -3.337365 30.689202 20.603033 5.388586 9.703613 -1.866325 -14.051191 -5.348938 0.158443 3.555210 -1.217137 0.238150 -0.135820 -0.458950 0.084960 
